<svg xmlns="http://www.w3.org/2000/svg" xmlns:xlink="http://www.w3.org/1999/xlink" width="250" zoomAndPan="magnify" viewBox="0 0 187.5 74.999997" height="100" preserveAspectRatio="xMidYMid meet" version="1.0"><defs><g/><clipPath id="5eff70b709"><path d="M 0 16.40625 L 44.878906 16.40625 L 44.878906 61.285156 L 0 61.285156 Z M 0 16.40625 " clip-rule="nonzero"/></clipPath><clipPath id="e79bcfe644"><path d="M 33.121094 43.003906 L 38.980469 46.449219 C 39.617188 46.820312 39.828125 47.617188 39.457031 48.253906 C 37.546875 51.460938 34.871094 54.113281 31.6875 55.96875 C 28.585938 57.746094 24.980469 58.753906 21.160156 58.753906 C 20.894531 58.753906 20.550781 58.753906 20.152344 58.726562 L 20.101562 58.726562 C 19.703125 59.550781 19.066406 60.210938 18.296875 60.664062 C 17.289062 61.246094 16.070312 61.433594 14.875 61.113281 C 13.65625 60.796875 12.703125 60 12.117188 59.019531 C 11.535156 58.011719 11.347656 56.792969 11.667969 55.570312 C 11.984375 54.378906 12.78125 53.398438 13.761719 52.839844 C 14.769531 52.257812 16.015625 52.046875 17.210938 52.363281 C 18.402344 52.707031 19.382812 53.476562 19.96875 54.484375 C 20.234375 54.960938 20.417969 55.519531 20.523438 56.074219 C 20.710938 56.074219 20.921875 56.101562 21.160156 56.101562 C 24.5 56.101562 27.65625 55.199219 30.363281 53.664062 C 32.773438 52.257812 34.871094 50.347656 36.460938 48.042969 L 31.792969 45.308594 C 31.394531 45.867188 30.945312 46.371094 30.46875 46.875 C 28.082031 49.234375 24.792969 50.71875 21.160156 50.71875 C 17.554688 50.71875 14.265625 49.234375 11.878906 46.875 C 11.375 46.34375 10.871094 45.761719 10.449219 45.152344 L 4.535156 48.464844 C 3.898438 48.835938 3.074219 48.597656 2.730469 47.960938 L 2.703125 47.960938 C 1.828125 46.34375 1.140625 44.648438 0.6875 42.898438 C 0.238281 41.171875 0 39.398438 0 37.566406 C 0 35.339844 0.34375 33.191406 0.980469 31.175781 C 1.566406 29.347656 2.386719 27.648438 3.394531 26.085938 C 2.863281 25.316406 2.625 24.441406 2.625 23.539062 C 2.625 22.398438 3.050781 21.230469 3.949219 20.355469 C 4.824219 19.457031 5.992188 19.03125 7.132812 19.03125 C 8.300781 19.03125 9.464844 19.457031 10.339844 20.355469 C 11.214844 21.230469 11.667969 22.398438 11.667969 23.539062 C 11.667969 24.707031 11.214844 25.871094 10.339844 26.746094 C 9.464844 27.621094 8.300781 28.074219 7.132812 28.074219 C 6.578125 28.074219 6.019531 27.96875 5.488281 27.753906 C 4.667969 29.054688 4.003906 30.488281 3.527344 31.972656 C 2.96875 33.75 2.652344 35.632812 2.652344 37.566406 C 2.652344 39.183594 2.863281 40.75 3.261719 42.234375 C 3.554688 43.347656 3.949219 44.433594 4.429688 45.46875 L 9.148438 42.84375 C 8.433594 41.226562 8.035156 39.449219 8.035156 37.566406 C 8.035156 33.960938 9.519531 30.671875 11.878906 28.285156 C 13.972656 26.21875 16.757812 24.839844 19.835938 24.519531 L 19.835938 17.730469 C 19.835938 16.988281 20.445312 16.40625 21.160156 16.40625 C 25.351562 16.40625 29.273438 17.625 32.5625 19.746094 C 35.71875 21.761719 38.316406 24.574219 40.015625 27.941406 C 40.941406 27.863281 41.84375 28.074219 42.585938 28.523438 L 42.613281 28.523438 C 43.59375 29.109375 44.390625 30.0625 44.707031 31.28125 C 45.027344 32.476562 44.839844 33.695312 44.257812 34.703125 C 43.671875 35.710938 42.71875 36.507812 41.5 36.824219 C 40.304688 37.144531 39.085938 36.929688 38.078125 36.375 L 38.078125 36.347656 L 38.078125 36.375 C 37.070312 35.789062 36.300781 34.808594 35.957031 33.617188 C 35.640625 32.421875 35.851562 31.203125 36.433594 30.195312 L 36.433594 30.167969 C 36.699219 29.691406 37.070312 29.242188 37.523438 28.894531 C 36.035156 26.085938 33.808594 23.699219 31.132812 21.976562 C 28.613281 20.355469 25.667969 19.351562 22.511719 19.109375 L 22.511719 24.519531 C 25.589844 24.839844 28.375 26.21875 30.46875 28.285156 C 32.828125 30.671875 34.3125 33.960938 34.3125 37.566406 C 34.3125 39.527344 33.890625 41.359375 33.121094 43.003906 Z M 28.585938 30.167969 C 26.675781 28.285156 24.050781 27.117188 21.160156 27.117188 C 18.296875 27.117188 15.671875 28.285156 13.761719 30.167969 C 11.878906 32.078125 10.714844 34.703125 10.714844 37.566406 C 10.714844 40.457031 11.878906 43.082031 13.761719 44.992188 C 15.671875 46.875 18.296875 48.042969 21.160156 48.042969 C 24.050781 48.042969 26.675781 46.875 28.585938 44.992188 C 30.46875 43.082031 31.636719 40.457031 31.636719 37.566406 C 31.636719 34.703125 30.46875 32.078125 28.585938 30.167969 Z M 21.160156 32.210938 C 22.644531 32.210938 23.996094 32.820312 24.953125 33.800781 C 25.933594 34.757812 26.542969 36.109375 26.542969 37.566406 C 26.542969 39.050781 25.933594 40.402344 24.953125 41.359375 C 23.996094 42.339844 22.644531 42.949219 21.160156 42.949219 C 19.703125 42.949219 18.351562 42.339844 17.394531 41.359375 C 16.414062 40.402344 15.804688 39.050781 15.804688 37.566406 C 15.804688 36.109375 16.414062 34.757812 17.394531 33.800781 C 18.351562 32.820312 19.703125 32.210938 21.160156 32.210938 Z M 23.070312 35.683594 C 22.59375 35.179688 21.929688 34.886719 21.160156 34.886719 C 20.417969 34.886719 19.753906 35.179688 19.277344 35.683594 C 18.773438 36.160156 18.480469 36.824219 18.480469 37.566406 C 18.480469 38.335938 18.773438 39 19.277344 39.476562 C 19.753906 39.980469 20.417969 40.273438 21.160156 40.273438 C 21.929688 40.273438 22.59375 39.980469 23.070312 39.476562 C 23.574219 39 23.867188 38.335938 23.867188 37.566406 C 23.867188 36.824219 23.574219 36.160156 23.070312 35.683594 Z M 7.132812 21.683594 C 6.65625 21.683594 6.179688 21.867188 5.832031 22.238281 C 5.460938 22.585938 5.277344 23.0625 5.277344 23.539062 C 5.277344 24.015625 5.460938 24.492188 5.832031 24.863281 C 6.179688 25.238281 6.65625 25.421875 7.132812 25.421875 C 7.609375 25.421875 8.085938 25.238281 8.457031 24.863281 C 8.832031 24.492188 9.015625 24.015625 9.015625 23.539062 C 9.015625 23.0625 8.832031 22.585938 8.457031 22.238281 C 8.085938 21.867188 7.609375 21.683594 7.132812 21.683594 Z M 14.425781 57.667969 C 14.664062 58.089844 15.0625 58.410156 15.566406 58.542969 C 16.042969 58.675781 16.546875 58.59375 16.972656 58.355469 C 17.394531 58.117188 17.714844 57.71875 17.847656 57.242188 C 17.980469 56.738281 17.898438 56.234375 17.660156 55.8125 C 17.421875 55.414062 17.023438 55.066406 16.519531 54.933594 C 16.015625 54.804688 15.511719 54.882812 15.113281 55.121094 C 14.691406 55.359375 14.371094 55.757812 14.238281 56.261719 C 14.105469 56.765625 14.1875 57.269531 14.425781 57.667969 Z M 41.949219 33.378906 C 42.1875 32.953125 42.269531 32.449219 42.136719 31.972656 C 42.003906 31.46875 41.683594 31.070312 41.261719 30.832031 C 40.863281 30.59375 40.359375 30.511719 39.855469 30.644531 C 39.351562 30.777344 38.953125 31.097656 38.714844 31.519531 C 38.476562 31.917969 38.398438 32.421875 38.527344 32.925781 C 38.660156 33.429688 39.007812 33.828125 39.40625 34.066406 C 39.828125 34.304688 40.332031 34.386719 40.835938 34.253906 C 41.3125 34.121094 41.710938 33.800781 41.949219 33.378906 Z M 41.949219 33.378906 " clip-rule="nonzero"/></clipPath><linearGradient x1="5.480951" gradientTransform="matrix(2.651706, 0, 0, 2.651706, -0.000000000000013287, 16.406247)" y1="18.341651" x2="10.641205" gradientUnits="userSpaceOnUse" y2="-1.624096" id="41e25dd536"><stop stop-opacity="1" stop-color="rgb(22.47467%, 26.698303%, 31.63147%)" offset="0"/><stop stop-opacity="1" stop-color="rgb(23.124695%, 27.313232%, 32.2052%)" offset="0.00390625"/><stop stop-opacity="1" stop-color="rgb(23.776245%, 27.929688%, 32.780457%)" offset="0.0078125"/><stop stop-opacity="1" stop-color="rgb(24.42627%, 28.544617%, 33.354187%)" offset="0.0117188"/><stop stop-opacity="1" stop-color="rgb(25.07782%, 29.159546%, 33.927917%)" offset="0.015625"/><stop stop-opacity="1" stop-color="rgb(25.727844%, 29.774475%, 34.501648%)" offset="0.0195312"/><stop stop-opacity="1" stop-color="rgb(26.379395%, 30.389404%, 35.075378%)" offset="0.0234375"/><stop stop-opacity="1" stop-color="rgb(27.029419%, 31.004333%, 35.649109%)" offset="0.0273438"/><stop stop-opacity="1" stop-color="rgb(27.680969%, 31.620789%, 36.222839%)" offset="0.03125"/><stop stop-opacity="1" stop-color="rgb(28.330994%, 32.235718%, 36.79657%)" offset="0.0351563"/><stop stop-opacity="1" stop-color="rgb(28.982544%, 32.850647%, 37.3703%)" offset="0.0390625"/><stop stop-opacity="1" stop-color="rgb(29.632568%, 33.465576%, 37.944031%)" offset="0.0429687"/><stop stop-opacity="1" stop-color="rgb(30.282593%, 34.080505%, 38.517761%)" offset="0.046875"/><stop stop-opacity="1" stop-color="rgb(30.932617%, 34.695435%, 39.091492%)" offset="0.0507812"/><stop stop-opacity="1" stop-color="rgb(31.584167%, 35.31189%, 39.665222%)" offset="0.0546875"/><stop stop-opacity="1" stop-color="rgb(32.234192%, 35.926819%, 40.238953%)" offset="0.0585938"/><stop stop-opacity="1" stop-color="rgb(32.885742%, 36.541748%, 40.812683%)" offset="0.0625"/><stop stop-opacity="1" stop-color="rgb(33.535767%, 37.156677%, 41.386414%)" offset="0.0664062"/><stop stop-opacity="1" stop-color="rgb(34.187317%, 37.773132%, 41.960144%)" offset="0.0703125"/><stop stop-opacity="1" stop-color="rgb(34.837341%, 38.388062%, 42.533875%)" offset="0.0742188"/><stop stop-opacity="1" stop-color="rgb(35.488892%, 39.002991%, 43.107605%)" offset="0.078125"/><stop stop-opacity="1" stop-color="rgb(36.138916%, 39.61792%, 43.681335%)" offset="0.0820313"/><stop stop-opacity="1" stop-color="rgb(36.78894%, 40.232849%, 44.255066%)" offset="0.0859375"/><stop stop-opacity="1" stop-color="rgb(37.438965%, 40.847778%, 44.828796%)" offset="0.0898437"/><stop stop-opacity="1" stop-color="rgb(38.090515%, 41.464233%, 45.404053%)" offset="0.09375"/><stop stop-opacity="1" stop-color="rgb(38.74054%, 42.079163%, 45.977783%)" offset="0.0976562"/><stop stop-opacity="1" stop-color="rgb(39.39209%, 42.694092%, 46.551514%)" offset="0.101562"/><stop stop-opacity="1" stop-color="rgb(40.042114%, 43.309021%, 47.125244%)" offset="0.105469"/><stop stop-opacity="1" stop-color="rgb(40.693665%, 43.92395%, 47.698975%)" offset="0.109375"/><stop stop-opacity="1" stop-color="rgb(41.343689%, 44.538879%, 48.272705%)" offset="0.113281"/><stop stop-opacity="1" stop-color="rgb(41.995239%, 45.155334%, 48.846436%)" offset="0.117188"/><stop stop-opacity="1" stop-color="rgb(42.645264%, 45.770264%, 49.420166%)" offset="0.121094"/><stop stop-opacity="1" stop-color="rgb(43.296814%, 46.385193%, 49.993896%)" offset="0.125"/><stop stop-opacity="1" stop-color="rgb(43.946838%, 47.000122%, 50.567627%)" offset="0.128906"/><stop stop-opacity="1" stop-color="rgb(44.596863%, 47.615051%, 51.141357%)" offset="0.132812"/><stop stop-opacity="1" stop-color="rgb(45.246887%, 48.22998%, 51.715088%)" offset="0.136719"/><stop stop-opacity="1" stop-color="rgb(45.898438%, 48.846436%, 52.288818%)" offset="0.140625"/><stop stop-opacity="1" stop-color="rgb(46.548462%, 49.461365%, 52.862549%)" offset="0.144531"/><stop stop-opacity="1" stop-color="rgb(47.200012%, 50.076294%, 53.436279%)" offset="0.148438"/><stop stop-opacity="1" stop-color="rgb(47.850037%, 50.691223%, 54.01001%)" offset="0.152344"/><stop stop-opacity="1" stop-color="rgb(48.501587%, 51.307678%, 54.58374%)" offset="0.15625"/><stop stop-opacity="1" stop-color="rgb(49.151611%, 51.922607%, 55.157471%)" offset="0.160156"/><stop stop-opacity="1" stop-color="rgb(49.803162%, 52.537537%, 55.731201%)" offset="0.164063"/><stop stop-opacity="1" stop-color="rgb(50.453186%, 53.152466%, 56.304932%)" offset="0.167969"/><stop stop-opacity="1" stop-color="rgb(51.104736%, 53.767395%, 56.880188%)" offset="0.171875"/><stop stop-opacity="1" stop-color="rgb(51.754761%, 54.382324%, 57.453918%)" offset="0.175781"/><stop stop-opacity="1" stop-color="rgb(52.404785%, 54.998779%, 58.027649%)" offset="0.179687"/><stop stop-opacity="1" stop-color="rgb(53.05481%, 55.613708%, 58.601379%)" offset="0.183594"/><stop stop-opacity="1" stop-color="rgb(53.70636%, 56.228638%, 59.17511%)" offset="0.1875"/><stop stop-opacity="1" stop-color="rgb(54.356384%, 56.843567%, 59.74884%)" offset="0.191406"/><stop stop-opacity="1" stop-color="rgb(55.007935%, 57.458496%, 60.322571%)" offset="0.195312"/><stop stop-opacity="1" stop-color="rgb(55.657959%, 58.073425%, 60.896301%)" offset="0.199219"/><stop stop-opacity="1" stop-color="rgb(56.309509%, 58.68988%, 61.470032%)" offset="0.203125"/><stop stop-opacity="1" stop-color="rgb(56.959534%, 59.30481%, 62.043762%)" offset="0.207031"/><stop stop-opacity="1" stop-color="rgb(57.611084%, 59.919739%, 62.617493%)" offset="0.210937"/><stop stop-opacity="1" stop-color="rgb(58.261108%, 60.534668%, 63.191223%)" offset="0.214844"/><stop stop-opacity="1" stop-color="rgb(58.912659%, 61.149597%, 63.764954%)" offset="0.21875"/><stop stop-opacity="1" stop-color="rgb(59.562683%, 61.764526%, 64.338684%)" offset="0.222656"/><stop stop-opacity="1" stop-color="rgb(60.212708%, 62.380981%, 64.912415%)" offset="0.226562"/><stop stop-opacity="1" stop-color="rgb(60.862732%, 62.995911%, 65.486145%)" offset="0.230469"/><stop stop-opacity="1" stop-color="rgb(61.514282%, 63.61084%, 66.059875%)" offset="0.234375"/><stop stop-opacity="1" stop-color="rgb(62.164307%, 64.225769%, 66.633606%)" offset="0.238281"/><stop stop-opacity="1" stop-color="rgb(62.815857%, 64.842224%, 67.207336%)" offset="0.242188"/><stop stop-opacity="1" stop-color="rgb(63.465881%, 65.457153%, 67.781067%)" offset="0.246094"/><stop stop-opacity="1" stop-color="rgb(64.117432%, 66.072083%, 68.354797%)" offset="0.25"/><stop stop-opacity="1" stop-color="rgb(64.767456%, 66.687012%, 68.928528%)" offset="0.253906"/><stop stop-opacity="1" stop-color="rgb(65.419006%, 67.301941%, 69.503784%)" offset="0.257812"/><stop stop-opacity="1" stop-color="rgb(66.069031%, 67.91687%, 70.077515%)" offset="0.261719"/><stop stop-opacity="1" stop-color="rgb(66.719055%, 68.533325%, 70.651245%)" offset="0.265625"/><stop stop-opacity="1" stop-color="rgb(67.36908%, 69.148254%, 71.224976%)" offset="0.269531"/><stop stop-opacity="1" stop-color="rgb(68.02063%, 69.763184%, 71.798706%)" offset="0.273437"/><stop stop-opacity="1" stop-color="rgb(68.670654%, 70.378113%, 72.372437%)" offset="0.277344"/><stop stop-opacity="1" stop-color="rgb(69.322205%, 70.993042%, 72.946167%)" offset="0.28125"/><stop stop-opacity="1" stop-color="rgb(69.972229%, 71.607971%, 73.519897%)" offset="0.285156"/><stop stop-opacity="1" stop-color="rgb(70.623779%, 72.224426%, 74.093628%)" offset="0.289062"/><stop stop-opacity="1" stop-color="rgb(71.273804%, 72.839355%, 74.667358%)" offset="0.292969"/><stop stop-opacity="1" stop-color="rgb(71.925354%, 73.454285%, 75.241089%)" offset="0.296875"/><stop stop-opacity="1" stop-color="rgb(72.575378%, 74.069214%, 75.814819%)" offset="0.300781"/><stop stop-opacity="1" stop-color="rgb(73.226929%, 74.684143%, 76.38855%)" offset="0.304687"/><stop stop-opacity="1" stop-color="rgb(73.876953%, 75.299072%, 76.96228%)" offset="0.308594"/><stop stop-opacity="1" stop-color="rgb(74.526978%, 75.915527%, 77.536011%)" offset="0.3125"/><stop stop-opacity="1" stop-color="rgb(75.177002%, 76.530457%, 78.109741%)" offset="0.316406"/><stop stop-opacity="1" stop-color="rgb(75.828552%, 77.145386%, 78.683472%)" offset="0.320312"/><stop stop-opacity="1" stop-color="rgb(76.478577%, 77.760315%, 79.257202%)" offset="0.324219"/><stop stop-opacity="1" stop-color="rgb(77.130127%, 78.37677%, 79.830933%)" offset="0.328125"/><stop stop-opacity="1" stop-color="rgb(77.780151%, 78.991699%, 80.404663%)" offset="0.332031"/><stop stop-opacity="1" stop-color="rgb(78.431702%, 79.606628%, 80.978394%)" offset="0.335938"/><stop stop-opacity="1" stop-color="rgb(79.081726%, 80.221558%, 81.552124%)" offset="0.339844"/><stop stop-opacity="1" stop-color="rgb(79.733276%, 80.836487%, 82.12738%)" offset="0.34375"/><stop stop-opacity="1" stop-color="rgb(80.383301%, 81.451416%, 82.701111%)" offset="0.347656"/><stop stop-opacity="1" stop-color="rgb(81.034851%, 82.067871%, 83.274841%)" offset="0.351562"/><stop stop-opacity="1" stop-color="rgb(81.684875%, 82.6828%, 83.848572%)" offset="0.355469"/><stop stop-opacity="1" stop-color="rgb(82.3349%, 83.297729%, 84.422302%)" offset="0.359375"/><stop stop-opacity="1" stop-color="rgb(82.984924%, 83.912659%, 84.996033%)" offset="0.363281"/><stop stop-opacity="1" stop-color="rgb(83.636475%, 84.527588%, 85.569763%)" offset="0.367187"/><stop stop-opacity="1" stop-color="rgb(84.286499%, 85.142517%, 86.143494%)" offset="0.371094"/><stop stop-opacity="1" stop-color="rgb(84.938049%, 85.758972%, 86.717224%)" offset="0.375"/><stop stop-opacity="1" stop-color="rgb(85.588074%, 86.373901%, 87.290955%)" offset="0.378906"/><stop stop-opacity="1" stop-color="rgb(86.239624%, 86.988831%, 87.864685%)" offset="0.382812"/><stop stop-opacity="1" stop-color="rgb(86.889648%, 87.60376%, 88.438416%)" offset="0.386719"/><stop stop-opacity="1" stop-color="rgb(87.541199%, 88.218689%, 89.012146%)" offset="0.390625"/><stop stop-opacity="1" stop-color="rgb(88.191223%, 88.833618%, 89.585876%)" offset="0.394531"/><stop stop-opacity="1" stop-color="rgb(88.842773%, 89.450073%, 90.159607%)" offset="0.398437"/><stop stop-opacity="1" stop-color="rgb(89.492798%, 90.065002%, 90.733337%)" offset="0.402344"/><stop stop-opacity="1" stop-color="rgb(90.142822%, 90.679932%, 91.307068%)" offset="0.40625"/><stop stop-opacity="1" stop-color="rgb(90.792847%, 91.294861%, 91.880798%)" offset="0.410156"/><stop stop-opacity="1" stop-color="rgb(91.444397%, 91.911316%, 92.454529%)" offset="0.414062"/><stop stop-opacity="1" stop-color="rgb(92.094421%, 92.526245%, 93.028259%)" offset="0.417969"/><stop stop-opacity="1" stop-color="rgb(92.745972%, 93.141174%, 93.60199%)" offset="0.421875"/><stop stop-opacity="1" stop-color="rgb(93.395996%, 93.756104%, 94.17572%)" offset="0.425781"/><stop stop-opacity="1" stop-color="rgb(94.047546%, 94.371033%, 94.750977%)" offset="0.429688"/><stop stop-opacity="1" stop-color="rgb(94.697571%, 94.985962%, 95.324707%)" offset="0.433594"/><stop stop-opacity="1" stop-color="rgb(95.349121%, 95.602417%, 95.898438%)" offset="0.4375"/><stop stop-opacity="1" stop-color="rgb(95.999146%, 96.217346%, 96.472168%)" offset="0.441406"/><stop stop-opacity="1" stop-color="rgb(96.64917%, 96.832275%, 97.045898%)" offset="0.445313"/><stop stop-opacity="1" stop-color="rgb(97.299194%, 97.447205%, 97.619629%)" offset="0.449219"/><stop stop-opacity="1" stop-color="rgb(97.950745%, 98.062134%, 98.193359%)" offset="0.453125"/><stop stop-opacity="1" stop-color="rgb(98.600769%, 98.677063%, 98.76709%)" offset="0.457031"/><stop stop-opacity="1" stop-color="rgb(99.252319%, 99.293518%, 99.34082%)" offset="0.460937"/><stop stop-opacity="1" stop-color="rgb(99.62616%, 99.645996%, 99.67041%)" offset="0.464844"/><stop stop-opacity="1" stop-color="rgb(100%, 100%, 100%)" offset="0.46875"/><stop stop-opacity="1" stop-color="rgb(100%, 100%, 100%)" offset="0.5"/><stop stop-opacity="1" stop-color="rgb(100%, 100%, 100%)" offset="0.794625"/><stop stop-opacity="1" stop-color="rgb(100%, 100%, 100%)" offset="1"/></linearGradient><clipPath id="aecbae58f7"><rect x="0" width="135" y="0" height="34"/></clipPath><clipPath id="1baf653763"><path d="M 0.335938 2 L 6 2 L 6 9 L 0.335938 9 Z M 0.335938 2 " clip-rule="nonzero"/></clipPath><clipPath id="c75c35d433"><rect x="0" width="126" y="0" height="12"/></clipPath></defs><g clip-path="url(#5eff70b709)"><g clip-path="url(#e79bcfe644)"><path fill="url(#41e25dd536)" d="M 0 16.40625 L 0 61.285156 L 44.878906 61.285156 L 44.878906 16.40625 Z M 0 16.40625 " fill-rule="nonzero"/></g></g><g transform="matrix(1, 0, 0, 1, 48, 17)"><g clip-path="url(#aecbae58f7)"><g fill="#ffffff" fill-opacity="1"><g transform="translate(1.172215, 26.286758)"><g><path d="M 12.734375 -4.515625 L 19.078125 -19.015625 L 22.015625 -19.015625 L 23.078125 0 L 20.140625 0 L 19.359375 -16.34375 L 19.25 -16.34375 L 12.015625 0 L 11.609375 0 L 4.515625 -15.6875 L 4.390625 -15.6875 L 3.625 0 L 2.359375 0 L 3.421875 -19.015625 L 6.09375 -19.015625 Z M 12.734375 -4.515625 "/></g></g></g><g fill="#ffffff" fill-opacity="1"><g transform="translate(30.652508, 26.286758)"><g><path d="M 11.34375 0.34375 C 8.375 0.34375 5.875 -0.457031 3.84375 -2.0625 C 1.8125 -3.675781 0.796875 -5.988281 0.796875 -9 C 0.796875 -10.757812 1.128906 -12.328125 1.796875 -13.703125 C 2.472656 -15.085938 3.359375 -16.171875 4.453125 -16.953125 C 6.660156 -18.554688 9.132812 -19.359375 11.875 -19.359375 C 13.457031 -19.359375 15.113281 -19.070312 16.84375 -18.5 L 16.546875 -16.546875 C 15.648438 -16.929688 14.953125 -17.21875 14.453125 -17.40625 C 13.015625 -17.925781 11.566406 -18.1875 10.109375 -18.1875 C 8.097656 -17.726562 6.550781 -16.734375 5.46875 -15.203125 C 4.382812 -13.671875 3.84375 -11.753906 3.84375 -9.453125 C 3.84375 -6.640625 4.582031 -4.46875 6.0625 -2.9375 C 7.539062 -1.414062 9.484375 -0.65625 11.890625 -0.65625 C 14.304688 -0.65625 16.109375 -1.175781 17.296875 -2.21875 L 17.296875 -0.625 C 15.648438 0.0195312 13.664062 0.34375 11.34375 0.34375 Z M 11.34375 0.34375 "/></g></g></g><g fill="#ffffff" fill-opacity="1"><g transform="translate(52.748488, 26.286758)"><g><path d="M 5.40625 -9.078125 L 5.40625 0 L 2.59375 0 L 2.59375 -19.015625 L 8.796875 -19.015625 C 10.722656 -19.015625 12.304688 -18.582031 13.546875 -17.71875 C 14.785156 -16.863281 15.40625 -15.734375 15.40625 -14.328125 C 15.40625 -12.921875 14.910156 -11.804688 13.921875 -10.984375 C 12.929688 -10.171875 11.59375 -9.613281 9.90625 -9.3125 L 17.609375 0 L 14.28125 0.40625 L 7.609375 -9.078125 Z M 5.40625 -9.9375 L 7.234375 -9.9375 C 10.679688 -9.9375 12.40625 -11.296875 12.40625 -14.015625 C 12.40625 -14.484375 12.289062 -15.003906 12.0625 -15.578125 C 11.625 -16.785156 10.6875 -17.578125 9.25 -17.953125 C 7.945312 -17.953125 6.664062 -17.789062 5.40625 -17.46875 Z M 5.40625 -9.9375 "/></g></g></g><g fill="#ffffff" fill-opacity="1"><g transform="translate(75.016862, 26.286758)"><g><path d="M 0.28125 0 L 8.828125 -19.484375 L 9.25 -19.484375 L 17.78125 0 L 14.65625 0 L 12.5 -5.171875 L 3.96875 -5.171875 L 1.84375 0 Z M 4.390625 -6.265625 L 12.046875 -6.265625 L 8.25 -15.578125 Z M 4.390625 -6.265625 "/></g></g></g><g fill="#ffffff" fill-opacity="1"><g transform="translate(97.026641, 26.286758)"><g><path d="M 5.375 -10.515625 L 11.46875 -10.515625 L 11.46875 -9.421875 L 5.375 -9.421875 L 5.375 0 L 2.59375 0 L 2.59375 -19.015625 L 13.828125 -19.015625 L 13.828125 -17.09375 L 8.5 -17.984375 C 7.539062 -17.984375 6.5 -17.820312 5.375 -17.5 Z M 5.375 -10.515625 "/></g></g></g><g fill="#ffffff" fill-opacity="1"><g transform="translate(114.783976, 26.286758)"><g><path d="M 9.078125 0 L 6.296875 0 L 6.296875 -17.640625 C 5.640625 -17.796875 4.988281 -17.875 4.34375 -17.875 L 0.453125 -16.984375 L 0.28125 -19.015625 L 15.078125 -19.015625 L 14.9375 -16.984375 L 11.03125 -17.875 C 10.382812 -17.875 9.734375 -17.796875 9.078125 -17.640625 Z M 9.078125 0 "/></g></g></g></g></g><g transform="matrix(1, 0, 0, 1, 54, 49)"><g clip-path="url(#c75c35d433)"><g clip-path="url(#1baf653763)"><g fill="#ffffff" fill-opacity="1"><g transform="translate(0.772621, 8.961399)"><g><path d="M 2.09375 -5.25 L 0.03125 -5.25 L 0.03125 -6 L 4.984375 -6 L 4.984375 -5.25 L 2.9375 -5.25 L 2.9375 0 L 2.09375 0 Z M 2.09375 -5.25 "/></g></g></g></g><g fill="#ffffff" fill-opacity="1"><g transform="translate(11.942159, 8.961399)"><g><path d="M 5.25 -0.75 L 5.25 0 L 0.90625 0 L 0.90625 -6 L 5.125 -6 L 5.125 -5.25 L 1.75 -5.25 L 1.75 -3.40625 L 4.765625 -3.40625 L 4.765625 -2.6875 L 1.75 -2.6875 L 1.75 -0.75 Z M 5.25 -0.75 "/></g></g></g><g fill="#ffffff" fill-opacity="1"><g transform="translate(23.822646, 8.961399)"><g><path d="M 3.578125 0.0625 C 2.984375 0.0625 2.441406 -0.0664062 1.953125 -0.328125 C 1.472656 -0.597656 1.09375 -0.960938 0.8125 -1.421875 C 0.539062 -1.890625 0.40625 -2.414062 0.40625 -3 C 0.40625 -3.582031 0.539062 -4.101562 0.8125 -4.5625 C 1.09375 -5.03125 1.472656 -5.394531 1.953125 -5.65625 C 2.441406 -5.925781 2.988281 -6.0625 3.59375 -6.0625 C 4.0625 -6.0625 4.488281 -5.984375 4.875 -5.828125 C 5.257812 -5.671875 5.585938 -5.4375 5.859375 -5.125 L 5.3125 -4.59375 C 4.851562 -5.0625 4.289062 -5.296875 3.625 -5.296875 C 3.175781 -5.296875 2.769531 -5.195312 2.40625 -5 C 2.050781 -4.800781 1.769531 -4.523438 1.5625 -4.171875 C 1.363281 -3.816406 1.265625 -3.425781 1.265625 -3 C 1.265625 -2.5625 1.363281 -2.164062 1.5625 -1.8125 C 1.769531 -1.46875 2.050781 -1.191406 2.40625 -0.984375 C 2.769531 -0.785156 3.175781 -0.6875 3.625 -0.6875 C 4.289062 -0.6875 4.851562 -0.925781 5.3125 -1.40625 L 5.859375 -0.875 C 5.585938 -0.5625 5.253906 -0.328125 4.859375 -0.171875 C 4.472656 -0.015625 4.046875 0.0625 3.578125 0.0625 Z M 3.578125 0.0625 "/></g></g></g><g fill="#ffffff" fill-opacity="1"><g transform="translate(36.157111, 8.961399)"><g><path d="M 6.046875 -6 L 6.046875 0 L 5.203125 0 L 5.203125 -2.671875 L 1.75 -2.671875 L 1.75 0 L 0.90625 0 L 0.90625 -6 L 1.75 -6 L 1.75 -3.421875 L 5.203125 -3.421875 L 5.203125 -6 Z M 6.046875 -6 "/></g></g></g><g fill="#ffffff" fill-opacity="1"><g transform="translate(49.253911, 8.961399)"><g><path d="M 6.046875 -6 L 6.046875 0 L 5.359375 0 L 1.75 -4.46875 L 1.75 0 L 0.90625 0 L 0.90625 -6 L 1.59375 -6 L 5.203125 -1.53125 L 5.203125 -6 Z M 6.046875 -6 "/></g></g></g><g fill="#ffffff" fill-opacity="1"><g transform="translate(62.350711, 8.961399)"><g><path d="M 3.609375 0.0625 C 3.003906 0.0625 2.457031 -0.0664062 1.96875 -0.328125 C 1.476562 -0.597656 1.09375 -0.960938 0.8125 -1.421875 C 0.539062 -1.890625 0.40625 -2.414062 0.40625 -3 C 0.40625 -3.570312 0.539062 -4.09375 0.8125 -4.5625 C 1.09375 -5.03125 1.476562 -5.394531 1.96875 -5.65625 C 2.457031 -5.925781 3.003906 -6.0625 3.609375 -6.0625 C 4.203125 -6.0625 4.738281 -5.925781 5.21875 -5.65625 C 5.707031 -5.394531 6.085938 -5.03125 6.359375 -4.5625 C 6.640625 -4.101562 6.78125 -3.582031 6.78125 -3 C 6.78125 -2.414062 6.640625 -1.890625 6.359375 -1.421875 C 6.085938 -0.960938 5.707031 -0.597656 5.21875 -0.328125 C 4.738281 -0.0664062 4.203125 0.0625 3.609375 0.0625 Z M 3.609375 -0.6875 C 4.046875 -0.6875 4.4375 -0.785156 4.78125 -0.984375 C 5.132812 -1.191406 5.410156 -1.46875 5.609375 -1.8125 C 5.816406 -2.164062 5.921875 -2.5625 5.921875 -3 C 5.921875 -3.425781 5.816406 -3.816406 5.609375 -4.171875 C 5.410156 -4.523438 5.132812 -4.800781 4.78125 -5 C 4.4375 -5.195312 4.046875 -5.296875 3.609375 -5.296875 C 3.171875 -5.296875 2.769531 -5.195312 2.40625 -5 C 2.050781 -4.800781 1.769531 -4.523438 1.5625 -4.171875 C 1.363281 -3.816406 1.265625 -3.425781 1.265625 -3 C 1.265625 -2.5625 1.363281 -2.164062 1.5625 -1.8125 C 1.769531 -1.46875 2.050781 -1.191406 2.40625 -0.984375 C 2.769531 -0.785156 3.171875 -0.6875 3.609375 -0.6875 Z M 3.609375 -0.6875 "/></g></g></g><g fill="#ffffff" fill-opacity="1"><g transform="translate(75.687354, 8.961399)"><g><path d="M 0.90625 -6 L 1.75 -6 L 1.75 -0.75 L 5 -0.75 L 5 0 L 0.90625 0 Z M 0.90625 -6 "/></g></g></g><g fill="#ffffff" fill-opacity="1"><g transform="translate(86.916849, 8.961399)"><g><path d="M 3.609375 0.0625 C 3.003906 0.0625 2.457031 -0.0664062 1.96875 -0.328125 C 1.476562 -0.597656 1.09375 -0.960938 0.8125 -1.421875 C 0.539062 -1.890625 0.40625 -2.414062 0.40625 -3 C 0.40625 -3.570312 0.539062 -4.09375 0.8125 -4.5625 C 1.09375 -5.03125 1.476562 -5.394531 1.96875 -5.65625 C 2.457031 -5.925781 3.003906 -6.0625 3.609375 -6.0625 C 4.203125 -6.0625 4.738281 -5.925781 5.21875 -5.65625 C 5.707031 -5.394531 6.085938 -5.03125 6.359375 -4.5625 C 6.640625 -4.101562 6.78125 -3.582031 6.78125 -3 C 6.78125 -2.414062 6.640625 -1.890625 6.359375 -1.421875 C 6.085938 -0.960938 5.707031 -0.597656 5.21875 -0.328125 C 4.738281 -0.0664062 4.203125 0.0625 3.609375 0.0625 Z M 3.609375 -0.6875 C 4.046875 -0.6875 4.4375 -0.785156 4.78125 -0.984375 C 5.132812 -1.191406 5.410156 -1.46875 5.609375 -1.8125 C 5.816406 -2.164062 5.921875 -2.5625 5.921875 -3 C 5.921875 -3.425781 5.816406 -3.816406 5.609375 -4.171875 C 5.410156 -4.523438 5.132812 -4.800781 4.78125 -5 C 4.4375 -5.195312 4.046875 -5.296875 3.609375 -5.296875 C 3.171875 -5.296875 2.769531 -5.195312 2.40625 -5 C 2.050781 -4.800781 1.769531 -4.523438 1.5625 -4.171875 C 1.363281 -3.816406 1.265625 -3.425781 1.265625 -3 C 1.265625 -2.5625 1.363281 -2.164062 1.5625 -1.8125 C 1.769531 -1.46875 2.050781 -1.191406 2.40625 -0.984375 C 2.769531 -0.785156 3.171875 -0.6875 3.609375 -0.6875 Z M 3.609375 -0.6875 "/></g></g></g><g fill="#ffffff" fill-opacity="1"><g transform="translate(100.253492, 8.961399)"><g><path d="M 5.046875 -3.03125 L 5.875 -3.03125 L 5.875 -0.6875 C 5.570312 -0.445312 5.222656 -0.257812 4.828125 -0.125 C 4.441406 0 4.035156 0.0625 3.609375 0.0625 C 3.003906 0.0625 2.457031 -0.0664062 1.96875 -0.328125 C 1.476562 -0.597656 1.09375 -0.960938 0.8125 -1.421875 C 0.539062 -1.890625 0.40625 -2.414062 0.40625 -3 C 0.40625 -3.582031 0.539062 -4.109375 0.8125 -4.578125 C 1.09375 -5.046875 1.476562 -5.410156 1.96875 -5.671875 C 2.457031 -5.929688 3.007812 -6.0625 3.625 -6.0625 C 4.101562 -6.0625 4.535156 -5.984375 4.921875 -5.828125 C 5.316406 -5.671875 5.648438 -5.441406 5.921875 -5.140625 L 5.390625 -4.609375 C 4.910156 -5.066406 4.332031 -5.296875 3.65625 -5.296875 C 3.195312 -5.296875 2.785156 -5.195312 2.421875 -5 C 2.066406 -4.800781 1.785156 -4.523438 1.578125 -4.171875 C 1.367188 -3.828125 1.265625 -3.4375 1.265625 -3 C 1.265625 -2.5625 1.367188 -2.164062 1.578125 -1.8125 C 1.785156 -1.46875 2.066406 -1.191406 2.421875 -0.984375 C 2.785156 -0.785156 3.191406 -0.6875 3.640625 -0.6875 C 4.179688 -0.6875 4.648438 -0.816406 5.046875 -1.078125 Z M 5.046875 -3.03125 "/></g></g></g><g fill="#ffffff" fill-opacity="1"><g transform="translate(113.007671, 8.961399)"><g><path d="M 3.1875 -2.078125 L 3.1875 0 L 2.34375 0 L 2.34375 -2.09375 L -0.03125 -6 L 0.875 -6 L 2.796875 -2.828125 L 4.71875 -6 L 5.578125 -6 Z M 3.1875 -2.078125 "/></g></g></g></g></g></svg>