<svg xmlns="http://www.w3.org/2000/svg" xmlns:xlink="http://www.w3.org/1999/xlink" width="500" zoomAndPan="magnify" viewBox="0 0 375 374.999991" height="500" preserveAspectRatio="xMidYMid meet" version="1.0"><defs><g/><clipPath id="fb945aa98b"><path d="M 158 96.652344 L 218 96.652344 L 218 172 L 158 172 Z M 158 96.652344 " clip-rule="nonzero"/></clipPath></defs><path fill="#7ed957" d="M 230.71875 218.582031 L 215.96875 216.898438 L 222.617188 152.75 C 222.617188 152.75 246.25 176.046875 247.9375 190.730469 C 249.144531 201.238281 230.71875 218.582031 230.71875 218.582031 Z M 230.71875 218.582031 " fill-opacity="1" fill-rule="nonzero"/><path fill="#7ed957" d="M 144.226562 218.582031 L 158.980469 216.898438 L 152.328125 152.75 C 152.328125 152.75 128.695312 176.046875 127.007812 190.730469 C 125.800781 201.238281 144.226562 218.582031 144.226562 218.582031 Z M 144.226562 218.582031 " fill-opacity="1" fill-rule="nonzero"/><g clip-path="url(#fb945aa98b)"><path fill="#7ed957" d="M 217.023438 133.152344 C 217.023438 142.542969 211.097656 171.65625 187.613281 171.65625 C 164.125 171.65625 158.203125 142.539062 158.203125 133.152344 C 158.203125 123.761719 175.378906 96.710938 187.472656 96.710938 C 199.5625 96.710938 217.023438 123.761719 217.023438 133.152344 Z M 217.023438 133.152344 " fill-opacity="1" fill-rule="nonzero"/></g><path fill="#ffffff" d="M 211.414062 137.558594 C 211.390625 150.574219 204.007812 162.015625 187.84375 162.015625 C 171.496094 162.015625 163.8125 151.605469 163.8125 138.574219 C 167.839844 130.386719 208.210938 129.101562 211.414062 137.558594 Z M 211.414062 137.558594 " fill-opacity="1" fill-rule="nonzero"/><path fill="#000000" d="M 232.714844 210.75 C 231.125 213.660156 144.605469 213.394531 142.753906 210.75 C 140.898438 208.105469 139.3125 154.917969 142.753906 152.539062 C 146.191406 150.15625 230.332031 151.214844 232.714844 152.539062 C 235.097656 153.863281 234.300781 207.839844 232.714844 210.75 Z M 232.714844 210.75 " fill-opacity="1" fill-rule="nonzero"/><path fill="#000000" d="M 232.714844 152.539062 C 230.332031 151.214844 146.191406 150.15625 142.753906 152.539062 C 142.351562 152.816406 142.019531 153.785156 141.75 155.273438 C 154.507812 153.476562 227.714844 154.480469 229.933594 155.714844 C 232.066406 156.898438 231.652344 200.296875 230.402344 211.449219 C 231.761719 211.242188 232.574219 211.007812 232.714844 210.75 C 234.300781 207.839844 235.097656 153.863281 232.714844 152.539062 Z M 232.714844 152.539062 " fill-opacity="1" fill-rule="nonzero"/><path fill="#000000" d="M 138.722656 212.601562 C 136.519531 214.191406 139.625 223.257812 140.160156 223.980469 C 142.117188 226.625 233.640625 226.890625 235.320312 223.980469 C 235.773438 223.199219 238.6875 214.984375 236.445312 212.601562 C 234.203125 210.222656 140.921875 211.015625 138.722656 212.601562 Z M 138.722656 212.601562 " fill-opacity="1" fill-rule="nonzero"/><path fill="#c1ff72" d="M 199.074219 181.585938 C 198.996094 181.53125 197.070312 180.203125 195.625 179.976562 C 195.113281 179.894531 194.410156 179.996094 193.703125 180.160156 C 193.792969 180 193.847656 179.820312 193.847656 179.609375 C 193.847656 179.261719 193.773438 178.902344 193.636719 178.539062 C 193.191406 177.363281 192.0625 176.1875 190.570312 175.46875 C 190.453125 175.414062 190.332031 175.359375 190.210938 175.308594 C 189.898438 174.488281 189.136719 173.972656 188.285156 173.777344 C 188.113281 173.738281 188.066406 173.90625 188.238281 174.027344 C 188.542969 174.238281 188.816406 174.558594 189.019531 174.9375 C 188.550781 174.835938 188.0625 174.777344 187.5625 174.777344 C 186.890625 174.777344 186.246094 174.878906 185.640625 175.054688 C 185.84375 174.628906 186.140625 174.257812 186.472656 174.027344 C 186.648438 173.910156 186.597656 173.738281 186.425781 173.777344 C 185.5 173.988281 184.679688 174.585938 184.429688 175.539062 C 183.023438 176.246094 181.953125 177.363281 181.507812 178.484375 C 181.355469 178.863281 181.277344 179.246094 181.277344 179.609375 C 181.277344 179.8125 181.332031 179.984375 181.433594 180.140625 C 180.753906 179.988281 180.089844 179.898438 179.597656 179.976562 C 178.152344 180.203125 176.226562 181.53125 176.148438 181.589844 C 175.9375 181.734375 175.886719 182.019531 176.03125 182.230469 C 176.121094 182.359375 176.265625 182.429688 176.410156 182.429688 C 176.5 182.429688 176.59375 182.402344 176.671875 182.347656 C 176.691406 182.335938 178.503906 181.085938 179.742188 180.890625 C 180.175781 180.820312 180.867188 180.941406 181.574219 181.125 C 181.441406 181.5625 181.351562 182.070312 181.308594 182.65625 C 180.472656 182.644531 179.632812 182.703125 179.082031 182.929688 C 177.6875 183.511719 176.542969 185.875 176.414062 186.144531 C 176.308594 186.375 176.40625 186.648438 176.636719 186.757812 C 176.699219 186.789062 176.765625 186.800781 176.832031 186.800781 C 177.007812 186.800781 177.171875 186.703125 177.25 186.535156 C 177.550781 185.898438 178.53125 184.160156 179.4375 183.78125 C 179.84375 183.613281 180.542969 183.566406 181.277344 183.582031 C 181.285156 184.328125 181.339844 185.023438 181.4375 185.667969 C 180.652344 185.84375 179.882812 186.089844 179.417969 186.425781 C 178.199219 187.3125 177.628906 189.878906 177.566406 190.167969 C 177.515625 190.417969 177.675781 190.664062 177.921875 190.714844 C 177.953125 190.722656 177.988281 190.726562 178.019531 190.726562 C 178.230469 190.726562 178.425781 190.578125 178.46875 190.359375 C 178.617188 189.667969 179.167969 187.75 179.960938 187.175781 C 180.304688 186.925781 180.933594 186.726562 181.617188 186.574219 C 181.914062 187.773438 182.410156 188.746094 183.113281 189.484375 L 183.15625 189.644531 C 183.164062 189.640625 183.195312 189.632812 183.238281 189.617188 C 184.265625 190.621094 185.703125 191.140625 187.570312 191.140625 C 189.445312 191.140625 190.882812 190.625 191.90625 189.636719 C 191.917969 189.640625 191.929688 189.644531 191.933594 189.644531 L 191.945312 189.59375 C 192.703125 188.84375 193.226562 187.824219 193.53125 186.554688 C 194.246094 186.714844 194.90625 186.917969 195.261719 187.171875 C 196.054688 187.75 196.605469 189.667969 196.753906 190.359375 C 196.800781 190.574219 196.992188 190.726562 197.203125 190.726562 C 197.234375 190.726562 197.269531 190.722656 197.300781 190.714844 C 197.550781 190.664062 197.710938 190.417969 197.65625 190.167969 C 197.597656 189.878906 197.027344 187.3125 195.804688 186.425781 C 195.324219 186.078125 194.519531 185.828125 193.707031 185.648438 C 193.804688 185.011719 193.855469 184.324219 193.859375 183.582031 C 194.625 183.566406 195.363281 183.605469 195.785156 183.78125 C 196.6875 184.160156 197.671875 185.898438 197.972656 186.535156 C 198.050781 186.703125 198.21875 186.800781 198.390625 186.800781 C 198.457031 186.800781 198.523438 186.789062 198.585938 186.757812 C 198.816406 186.648438 198.914062 186.375 198.808594 186.144531 C 198.679688 185.875 197.535156 183.511719 196.140625 182.929688 C 195.574219 182.695312 194.691406 182.640625 193.832031 182.660156 C 193.789062 182.082031 193.699219 181.582031 193.570312 181.144531 C 194.308594 180.949219 195.03125 180.820312 195.480469 180.890625 C 196.71875 181.085938 198.53125 182.335938 198.550781 182.347656 C 198.628906 182.402344 198.722656 182.429688 198.8125 182.429688 C 198.957031 182.429688 199.101562 182.359375 199.191406 182.230469 C 199.339844 182.019531 199.285156 181.730469 199.074219 181.585938 Z M 199.074219 181.585938 " fill-opacity="1" fill-rule="nonzero"/><g fill="#00bf63" fill-opacity="1"><g transform="translate(105.386419, 258.27533)"><g><path d="M 5.328125 -21.328125 L 18.125 -21.328125 C 18.90625 -21.328125 19.617188 -21.132812 20.265625 -20.75 C 20.921875 -20.363281 21.4375 -19.847656 21.8125 -19.203125 C 22.195312 -18.554688 22.390625 -17.84375 22.390625 -17.0625 L 22.390625 0 L 18.125 0 L 18.125 -17.0625 L 13.859375 -17.0625 L 13.859375 0 L 9.59375 0 L 9.59375 -17.0625 L 5.328125 -17.0625 L 5.328125 0 L 1.0625 0 L 1.0625 -17.0625 C 1.0625 -17.84375 1.253906 -18.554688 1.640625 -19.203125 C 2.023438 -19.847656 2.539062 -20.363281 3.1875 -20.75 C 3.832031 -21.132812 4.546875 -21.328125 5.328125 -21.328125 Z M 5.328125 -21.328125 "/></g></g></g><g fill="#00bf63" fill-opacity="1"><g transform="translate(128.847298, 258.27533)"><g><path d="M 22.390625 0 L 5.328125 0 C 4.546875 0 3.832031 -0.1875 3.1875 -0.5625 C 2.539062 -0.945312 2.023438 -1.460938 1.640625 -2.109375 C 1.253906 -2.765625 1.0625 -3.484375 1.0625 -4.265625 L 1.0625 -17.0625 C 1.0625 -17.84375 1.253906 -18.554688 1.640625 -19.203125 C 2.023438 -19.847656 2.539062 -20.363281 3.1875 -20.75 C 3.832031 -21.132812 4.546875 -21.328125 5.328125 -21.328125 L 22.390625 -21.328125 L 22.390625 -17.0625 L 5.328125 -17.0625 L 5.328125 -4.265625 L 22.390625 -4.265625 Z M 22.390625 0 "/></g></g></g><g fill="#00bf63" fill-opacity="1"><g transform="translate(152.308177, 258.27533)"><g><path d="M 22.390625 -17.0625 L 22.390625 -12.796875 C 22.390625 -12.015625 22.195312 -11.296875 21.8125 -10.640625 C 21.4375 -9.992188 20.921875 -9.476562 20.265625 -9.09375 C 19.617188 -8.71875 18.90625 -8.53125 18.125 -8.53125 L 13.859375 -8.53125 L 18.125 -4.265625 L 22.390625 -4.265625 L 22.390625 0 L 17.265625 0 C 16.660156 0 16.148438 -0.210938 15.734375 -0.640625 L 7.84375 -8.53125 L 5.328125 -8.53125 L 5.328125 0 L 1.0625 0 L 1.0625 -21.328125 L 18.125 -21.328125 C 18.90625 -21.328125 19.617188 -21.132812 20.265625 -20.75 C 20.921875 -20.363281 21.4375 -19.847656 21.8125 -19.203125 C 22.195312 -18.554688 22.390625 -17.84375 22.390625 -17.0625 Z M 18.125 -17.0625 L 5.328125 -17.0625 L 5.328125 -12.796875 L 18.125 -12.796875 Z M 18.125 -17.0625 "/></g></g></g><g fill="#00bf63" fill-opacity="1"><g transform="translate(175.769056, 258.27533)"><g><path d="M 5.328125 -21.328125 L 18.125 -21.328125 C 18.90625 -21.328125 19.617188 -21.132812 20.265625 -20.75 C 20.921875 -20.363281 21.4375 -19.847656 21.8125 -19.203125 C 22.195312 -18.554688 22.390625 -17.84375 22.390625 -17.0625 L 22.390625 0 L 18.125 0 L 18.125 -8.53125 L 5.328125 -8.53125 L 5.328125 0 L 1.0625 0 L 1.0625 -17.0625 C 1.0625 -17.84375 1.253906 -18.554688 1.640625 -19.203125 C 2.023438 -19.847656 2.539062 -20.363281 3.1875 -20.75 C 3.832031 -21.132812 4.546875 -21.328125 5.328125 -21.328125 Z M 5.328125 -17.0625 L 5.328125 -12.796875 L 18.125 -12.796875 L 18.125 -17.0625 Z M 5.328125 -17.0625 "/></g></g></g><g fill="#00bf63" fill-opacity="1"><g transform="translate(199.229935, 258.27533)"><g><path d="M 22.390625 -21.328125 L 22.390625 -17.0625 L 5.328125 -17.0625 L 5.328125 -12.796875 L 22.390625 -12.796875 L 22.390625 -8.53125 L 5.328125 -8.53125 L 5.328125 0 L 1.0625 0 L 1.0625 -17.0625 C 1.0625 -17.84375 1.253906 -18.554688 1.640625 -19.203125 C 2.023438 -19.847656 2.539062 -20.363281 3.1875 -20.75 C 3.832031 -21.132812 4.546875 -21.328125 5.328125 -21.328125 Z M 22.390625 -21.328125 "/></g></g></g><g fill="#00bf63" fill-opacity="1"><g transform="translate(222.690814, 258.27533)"><g><path d="M 22.390625 -21.328125 L 22.390625 -17.0625 L 13.859375 -17.0625 L 13.859375 0 L 9.59375 0 L 9.59375 -17.0625 L 1.0625 -17.0625 L 1.0625 -21.328125 Z M 22.390625 -21.328125 "/></g></g></g><g fill="#00bf63" fill-opacity="1"><g transform="translate(246.151693, 258.27533)"><g><path d="M 22.390625 -21.328125 L 22.390625 -17.0625 L 5.328125 -17.0625 L 5.328125 -12.796875 L 18.125 -12.796875 C 18.90625 -12.796875 19.617188 -12.601562 20.265625 -12.21875 C 20.921875 -11.84375 21.4375 -11.328125 21.8125 -10.671875 C 22.195312 -10.023438 22.390625 -9.3125 22.390625 -8.53125 L 22.390625 -4.265625 C 22.390625 -3.484375 22.195312 -2.765625 21.8125 -2.109375 C 21.4375 -1.460938 20.921875 -0.945312 20.265625 -0.5625 C 19.617188 -0.1875 18.90625 0 18.125 0 L 1.0625 0 L 1.0625 -4.265625 L 18.125 -4.265625 L 18.125 -8.53125 L 5.328125 -8.53125 C 4.546875 -8.53125 3.832031 -8.71875 3.1875 -9.09375 C 2.539062 -9.476562 2.023438 -9.992188 1.640625 -10.640625 C 1.253906 -11.296875 1.0625 -12.015625 1.0625 -12.796875 L 1.0625 -17.0625 C 1.0625 -17.84375 1.253906 -18.554688 1.640625 -19.203125 C 2.023438 -19.847656 2.539062 -20.363281 3.1875 -20.75 C 3.832031 -21.132812 4.546875 -21.328125 5.328125 -21.328125 Z M 22.390625 -21.328125 "/></g></g></g><g fill="#ffffff" fill-opacity="1"><g transform="translate(108.428606, 274.147746)"><g><path d="M 6.125 -2.375 C 6.125 -1.613281 5.847656 -1.003906 5.296875 -0.546875 C 4.753906 -0.0976562 3.976562 0.125 2.96875 0.125 C 2.070312 0.125 1.265625 -0.046875 0.546875 -0.390625 L 0.546875 -2.09375 C 0.953125 -1.914062 1.375 -1.75 1.8125 -1.59375 C 2.25 -1.445312 2.6875 -1.375 3.125 -1.375 C 3.570312 -1.375 3.890625 -1.457031 4.078125 -1.625 C 4.265625 -1.800781 4.359375 -2.023438 4.359375 -2.296875 C 4.359375 -2.503906 4.28125 -2.6875 4.125 -2.84375 C 3.976562 -3 3.78125 -3.140625 3.53125 -3.265625 C 3.289062 -3.398438 3.007812 -3.546875 2.6875 -3.703125 C 2.488281 -3.796875 2.269531 -3.90625 2.03125 -4.03125 C 1.800781 -4.164062 1.582031 -4.332031 1.375 -4.53125 C 1.164062 -4.726562 0.988281 -4.960938 0.84375 -5.234375 C 0.707031 -5.515625 0.640625 -5.851562 0.640625 -6.25 C 0.640625 -7.019531 0.898438 -7.617188 1.421875 -8.046875 C 1.941406 -8.472656 2.648438 -8.6875 3.546875 -8.6875 C 3.992188 -8.6875 4.414062 -8.632812 4.8125 -8.53125 C 5.21875 -8.425781 5.644531 -8.28125 6.09375 -8.09375 L 5.515625 -6.671875 C 5.117188 -6.828125 4.765625 -6.945312 4.453125 -7.03125 C 4.140625 -7.125 3.816406 -7.171875 3.484375 -7.171875 C 3.140625 -7.171875 2.875 -7.09375 2.6875 -6.9375 C 2.507812 -6.78125 2.421875 -6.570312 2.421875 -6.3125 C 2.421875 -6.007812 2.554688 -5.769531 2.828125 -5.59375 C 3.097656 -5.414062 3.503906 -5.195312 4.046875 -4.9375 C 4.484375 -4.726562 4.851562 -4.507812 5.15625 -4.28125 C 5.46875 -4.0625 5.707031 -3.800781 5.875 -3.5 C 6.039062 -3.195312 6.125 -2.820312 6.125 -2.375 Z M 6.125 -2.375 "/></g></g></g><g fill="#ffffff" fill-opacity="1"><g transform="translate(118.640615, 274.147746)"><g><path d="M 8.859375 -4.296875 C 8.859375 -3.410156 8.710938 -2.632812 8.421875 -1.96875 C 8.128906 -1.3125 7.679688 -0.796875 7.078125 -0.421875 C 6.472656 -0.0546875 5.707031 0.125 4.78125 0.125 C 3.851562 0.125 3.085938 -0.0546875 2.484375 -0.421875 C 1.878906 -0.796875 1.429688 -1.3125 1.140625 -1.96875 C 0.847656 -2.632812 0.703125 -3.414062 0.703125 -4.3125 C 0.703125 -5.195312 0.847656 -5.96875 1.140625 -6.625 C 1.429688 -7.28125 1.878906 -7.789062 2.484375 -8.15625 C 3.085938 -8.519531 3.851562 -8.703125 4.78125 -8.703125 C 5.71875 -8.703125 6.484375 -8.519531 7.078125 -8.15625 C 7.679688 -7.789062 8.128906 -7.273438 8.421875 -6.609375 C 8.710938 -5.953125 8.859375 -5.179688 8.859375 -4.296875 Z M 2.609375 -4.296875 C 2.609375 -3.398438 2.78125 -2.691406 3.125 -2.171875 C 3.46875 -1.660156 4.019531 -1.40625 4.78125 -1.40625 C 5.550781 -1.40625 6.101562 -1.660156 6.4375 -2.171875 C 6.78125 -2.691406 6.953125 -3.398438 6.953125 -4.296875 C 6.953125 -5.191406 6.78125 -5.894531 6.4375 -6.40625 C 6.101562 -6.925781 5.550781 -7.1875 4.78125 -7.1875 C 4.019531 -7.1875 3.46875 -6.925781 3.125 -6.40625 C 2.78125 -5.894531 2.609375 -5.191406 2.609375 -4.296875 Z M 2.609375 -4.296875 "/></g></g></g><g fill="#ffffff" fill-opacity="1"><g transform="translate(131.792623, 274.147746)"><g><path d="M 1.078125 0 L 1.078125 -8.5625 L 2.890625 -8.5625 L 2.890625 -1.5 L 6.375 -1.5 L 6.375 0 Z M 1.078125 0 "/></g></g></g><g fill="#ffffff" fill-opacity="1"><g transform="translate(142.172631, 274.147746)"><g><path d="M 8.046875 -8.5625 L 8.046875 -3.03125 C 8.046875 -2.4375 7.914062 -1.898438 7.65625 -1.421875 C 7.394531 -0.941406 7 -0.5625 6.46875 -0.28125 C 5.945312 -0.0078125 5.289062 0.125 4.5 0.125 C 3.363281 0.125 2.5 -0.164062 1.90625 -0.75 C 1.3125 -1.332031 1.015625 -2.097656 1.015625 -3.046875 L 1.015625 -8.5625 L 2.828125 -8.5625 L 2.828125 -3.328125 C 2.828125 -2.609375 2.972656 -2.109375 3.265625 -1.828125 C 3.554688 -1.546875 3.984375 -1.40625 4.546875 -1.40625 C 5.140625 -1.40625 5.566406 -1.5625 5.828125 -1.875 C 6.097656 -2.1875 6.234375 -2.675781 6.234375 -3.34375 L 6.234375 -8.5625 Z M 8.046875 -8.5625 "/></g></g></g><g fill="#ffffff" fill-opacity="1"><g transform="translate(154.844638, 274.147746)"><g><path d="M 4.71875 -7.171875 C 4.019531 -7.171875 3.484375 -6.910156 3.109375 -6.390625 C 2.742188 -5.867188 2.5625 -5.160156 2.5625 -4.265625 C 2.5625 -3.347656 2.734375 -2.640625 3.078125 -2.140625 C 3.421875 -1.640625 3.96875 -1.390625 4.71875 -1.390625 C 5.0625 -1.390625 5.40625 -1.425781 5.75 -1.5 C 6.101562 -1.582031 6.488281 -1.695312 6.90625 -1.84375 L 6.90625 -0.328125 C 6.53125 -0.171875 6.15625 -0.0546875 5.78125 0.015625 C 5.414062 0.0859375 5.003906 0.125 4.546875 0.125 C 3.660156 0.125 2.929688 -0.0546875 2.359375 -0.421875 C 1.796875 -0.785156 1.378906 -1.296875 1.109375 -1.953125 C 0.835938 -2.617188 0.703125 -3.390625 0.703125 -4.265625 C 0.703125 -5.128906 0.851562 -5.894531 1.15625 -6.5625 C 1.46875 -7.226562 1.921875 -7.75 2.515625 -8.125 C 3.117188 -8.5 3.851562 -8.6875 4.71875 -8.6875 C 5.144531 -8.6875 5.570312 -8.628906 6 -8.515625 C 6.425781 -8.410156 6.832031 -8.269531 7.21875 -8.09375 L 6.640625 -6.609375 C 6.316406 -6.765625 5.992188 -6.894531 5.671875 -7 C 5.347656 -7.113281 5.03125 -7.171875 4.71875 -7.171875 Z M 5.84375 1.46875 C 5.84375 1.914062 5.707031 2.257812 5.4375 2.5 C 5.175781 2.75 4.707031 2.875 4.03125 2.875 C 3.851562 2.875 3.691406 2.863281 3.546875 2.84375 C 3.410156 2.820312 3.285156 2.796875 3.171875 2.765625 L 3.171875 1.78125 C 3.285156 1.8125 3.421875 1.835938 3.578125 1.859375 C 3.742188 1.878906 3.890625 1.890625 4.015625 1.890625 C 4.128906 1.890625 4.226562 1.863281 4.3125 1.8125 C 4.394531 1.757812 4.4375 1.664062 4.4375 1.53125 C 4.4375 1.382812 4.363281 1.253906 4.21875 1.140625 C 4.070312 1.035156 3.820312 0.957031 3.46875 0.90625 L 3.921875 0 L 5.046875 0 L 4.890625 0.359375 C 5.128906 0.441406 5.347656 0.570312 5.546875 0.75 C 5.742188 0.925781 5.84375 1.164062 5.84375 1.46875 Z M 5.84375 1.46875 "/></g></g></g><g fill="#ffffff" fill-opacity="1"><g transform="translate(166.088641, 274.147746)"><g><path d="M 8.859375 -4.296875 C 8.859375 -3.410156 8.710938 -2.632812 8.421875 -1.96875 C 8.128906 -1.3125 7.679688 -0.796875 7.078125 -0.421875 C 6.472656 -0.0546875 5.707031 0.125 4.78125 0.125 C 3.851562 0.125 3.085938 -0.0546875 2.484375 -0.421875 C 1.878906 -0.796875 1.429688 -1.3125 1.140625 -1.96875 C 0.847656 -2.632812 0.703125 -3.414062 0.703125 -4.3125 C 0.703125 -5.195312 0.847656 -5.96875 1.140625 -6.625 C 1.429688 -7.28125 1.878906 -7.789062 2.484375 -8.15625 C 3.085938 -8.519531 3.851562 -8.703125 4.78125 -8.703125 C 5.71875 -8.703125 6.484375 -8.519531 7.078125 -8.15625 C 7.679688 -7.789062 8.128906 -7.273438 8.421875 -6.609375 C 8.710938 -5.953125 8.859375 -5.179688 8.859375 -4.296875 Z M 2.609375 -4.296875 C 2.609375 -3.398438 2.78125 -2.691406 3.125 -2.171875 C 3.46875 -1.660156 4.019531 -1.40625 4.78125 -1.40625 C 5.550781 -1.40625 6.101562 -1.660156 6.4375 -2.171875 C 6.78125 -2.691406 6.953125 -3.398438 6.953125 -4.296875 C 6.953125 -5.191406 6.78125 -5.894531 6.4375 -6.40625 C 6.101562 -6.925781 5.550781 -7.1875 4.78125 -7.1875 C 4.019531 -7.1875 3.46875 -6.925781 3.125 -6.40625 C 2.78125 -5.894531 2.609375 -5.191406 2.609375 -4.296875 Z M 2.34375 -9.28125 C 2.382812 -9.90625 2.554688 -10.363281 2.859375 -10.65625 C 3.160156 -10.945312 3.519531 -11.09375 3.9375 -11.09375 C 4.15625 -11.09375 4.363281 -11.039062 4.5625 -10.9375 C 4.757812 -10.832031 4.957031 -10.726562 5.15625 -10.625 C 5.351562 -10.519531 5.546875 -10.46875 5.734375 -10.46875 C 5.859375 -10.46875 5.972656 -10.519531 6.078125 -10.625 C 6.191406 -10.726562 6.273438 -10.882812 6.328125 -11.09375 L 7.203125 -11.09375 C 7.148438 -10.476562 6.972656 -10.019531 6.671875 -9.71875 C 6.367188 -9.425781 6.015625 -9.28125 5.609375 -9.28125 C 5.398438 -9.28125 5.191406 -9.332031 4.984375 -9.4375 C 4.773438 -9.539062 4.570312 -9.644531 4.375 -9.75 C 4.1875 -9.851562 3.992188 -9.90625 3.796875 -9.90625 C 3.679688 -9.90625 3.566406 -9.851562 3.453125 -9.75 C 3.335938 -9.644531 3.257812 -9.488281 3.21875 -9.28125 Z M 2.34375 -9.28125 "/></g></g></g><g fill="#ffffff" fill-opacity="1"><g transform="translate(179.240648, 274.147746)"><g><path d="M 6.015625 0 L 1.078125 0 L 1.078125 -8.5625 L 6.015625 -8.5625 L 6.015625 -7.078125 L 2.890625 -7.078125 L 2.890625 -5.203125 L 5.796875 -5.203125 L 5.796875 -3.703125 L 2.890625 -3.703125 L 2.890625 -1.5 L 6.015625 -1.5 Z M 6.015625 0 "/></g></g></g><g fill="#ffffff" fill-opacity="1"><g transform="translate(189.560655, 274.147746)"><g><path d="M 6.125 -2.375 C 6.125 -1.613281 5.847656 -1.003906 5.296875 -0.546875 C 4.753906 -0.0976562 3.976562 0.125 2.96875 0.125 C 2.070312 0.125 1.265625 -0.046875 0.546875 -0.390625 L 0.546875 -2.09375 C 0.953125 -1.914062 1.375 -1.75 1.8125 -1.59375 C 2.25 -1.445312 2.6875 -1.375 3.125 -1.375 C 3.570312 -1.375 3.890625 -1.457031 4.078125 -1.625 C 4.265625 -1.800781 4.359375 -2.023438 4.359375 -2.296875 C 4.359375 -2.503906 4.28125 -2.6875 4.125 -2.84375 C 3.976562 -3 3.78125 -3.140625 3.53125 -3.265625 C 3.289062 -3.398438 3.007812 -3.546875 2.6875 -3.703125 C 2.488281 -3.796875 2.269531 -3.90625 2.03125 -4.03125 C 1.800781 -4.164062 1.582031 -4.332031 1.375 -4.53125 C 1.164062 -4.726562 0.988281 -4.960938 0.84375 -5.234375 C 0.707031 -5.515625 0.640625 -5.851562 0.640625 -6.25 C 0.640625 -7.019531 0.898438 -7.617188 1.421875 -8.046875 C 1.941406 -8.472656 2.648438 -8.6875 3.546875 -8.6875 C 3.992188 -8.6875 4.414062 -8.632812 4.8125 -8.53125 C 5.21875 -8.425781 5.644531 -8.28125 6.09375 -8.09375 L 5.515625 -6.671875 C 5.117188 -6.828125 4.765625 -6.945312 4.453125 -7.03125 C 4.140625 -7.125 3.816406 -7.171875 3.484375 -7.171875 C 3.140625 -7.171875 2.875 -7.09375 2.6875 -6.9375 C 2.507812 -6.78125 2.421875 -6.570312 2.421875 -6.3125 C 2.421875 -6.007812 2.554688 -5.769531 2.828125 -5.59375 C 3.097656 -5.414062 3.503906 -5.195312 4.046875 -4.9375 C 4.484375 -4.726562 4.851562 -4.507812 5.15625 -4.28125 C 5.46875 -4.0625 5.707031 -3.800781 5.875 -3.5 C 6.039062 -3.195312 6.125 -2.820312 6.125 -2.375 Z M 6.125 -2.375 "/></g></g></g><g fill="#ffffff" fill-opacity="1"><g transform="translate(199.772663, 274.147746)"><g/></g></g><g fill="#ffffff" fill-opacity="1"><g transform="translate(206.072659, 274.147746)"><g><path d="M 6.015625 0 L 1.078125 0 L 1.078125 -8.5625 L 6.015625 -8.5625 L 6.015625 -7.078125 L 2.890625 -7.078125 L 2.890625 -5.203125 L 5.796875 -5.203125 L 5.796875 -3.703125 L 2.890625 -3.703125 L 2.890625 -1.5 L 6.015625 -1.5 Z M 6.015625 0 "/></g></g></g><g fill="#ffffff" fill-opacity="1"><g transform="translate(216.392665, 274.147746)"><g><path d="M 4.703125 0 L 2.640625 -6.71875 L 2.59375 -6.71875 C 2.601562 -6.5625 2.613281 -6.320312 2.625 -6 C 2.644531 -5.675781 2.660156 -5.332031 2.671875 -4.96875 C 2.691406 -4.601562 2.703125 -4.273438 2.703125 -3.984375 L 2.703125 0 L 1.078125 0 L 1.078125 -8.5625 L 3.546875 -8.5625 L 5.578125 -2.015625 L 5.609375 -2.015625 L 7.765625 -8.5625 L 10.234375 -8.5625 L 10.234375 0 L 8.546875 0 L 8.546875 -4.0625 C 8.546875 -4.332031 8.550781 -4.640625 8.5625 -4.984375 C 8.570312 -5.335938 8.582031 -5.671875 8.59375 -5.984375 C 8.601562 -6.304688 8.613281 -6.546875 8.625 -6.703125 L 8.578125 -6.703125 L 6.375 0 Z M 4.703125 0 "/></g></g></g><g fill="#ffffff" fill-opacity="1"><g transform="translate(231.308676, 274.147746)"><g/></g></g><g fill="#ffffff" fill-opacity="1"><g transform="translate(237.608673, 274.147746)"><g><path d="M 4.375 0 L 2.5625 0 L 2.5625 -7.0625 L 0.234375 -7.0625 L 0.234375 -8.5625 L 6.703125 -8.5625 L 6.703125 -7.0625 L 4.375 -7.0625 Z M 4.375 0 "/></g></g></g><g fill="#ffffff" fill-opacity="1"><g transform="translate(248.15668, 274.147746)"><g><path d="M 2.609375 -1.890625 L 2.609375 0 L 0.640625 0 L 0.640625 -1.890625 Z M 2.609375 -1.890625 "/></g></g></g><g fill="#ffffff" fill-opacity="1"><g transform="translate(255.020672, 274.147746)"><g><path d="M 4.28125 0 L 0.390625 0 L 0.390625 -1.03125 L 1.421875 -1.515625 L 1.421875 -7.0625 L 0.390625 -7.53125 L 0.390625 -8.5625 L 4.28125 -8.5625 L 4.28125 -7.53125 L 3.234375 -7.0625 L 3.234375 -1.515625 L 4.28125 -1.03125 Z M 4.28125 0 "/></g></g></g><g fill="#ffffff" fill-opacity="1"><g transform="translate(263.288671, 274.147746)"><g><path d="M 2.609375 -1.890625 L 2.609375 0 L 0.640625 0 L 0.640625 -1.890625 Z M 2.609375 -1.890625 "/></g></g></g></svg>