<svg xmlns="http://www.w3.org/2000/svg" xmlns:xlink="http://www.w3.org/1999/xlink" width="48" zoomAndPan="magnify" viewBox="0 0 36 36.000001" height="48" preserveAspectRatio="xMidYMid meet" version="1.0"><defs><clipPath id="071ae43700"><path d="M 0.488281 0 L 35.511719 0 L 35.511719 35 L 0.488281 35 Z M 0.488281 0 " clip-rule="nonzero"/></clipPath><clipPath id="66238ee677"><path d="M 26.222656 20.664062 L 30.773438 23.34375 C 31.269531 23.632812 31.433594 24.25 31.144531 24.746094 C 29.660156 27.238281 27.582031 29.300781 25.109375 30.742188 C 22.699219 32.121094 19.894531 32.90625 16.929688 32.90625 C 16.722656 32.90625 16.453125 32.90625 16.144531 32.882812 L 16.105469 32.882812 C 15.796875 33.523438 15.300781 34.039062 14.703125 34.386719 C 13.921875 34.839844 12.972656 34.984375 12.046875 34.738281 C 11.097656 34.492188 10.355469 33.875 9.902344 33.109375 C 9.449219 32.328125 9.304688 31.378906 9.550781 30.433594 C 9.800781 29.503906 10.417969 28.742188 11.179688 28.308594 C 11.964844 27.855469 12.929688 27.691406 13.859375 27.9375 C 14.785156 28.207031 15.546875 28.804688 16 29.585938 C 16.207031 29.957031 16.351562 30.390625 16.433594 30.824219 C 16.578125 30.824219 16.742188 30.84375 16.929688 30.84375 C 19.523438 30.84375 21.976562 30.144531 24.078125 28.949219 C 25.953125 27.855469 27.582031 26.375 28.816406 24.582031 L 25.191406 22.457031 C 24.882812 22.890625 24.53125 23.28125 24.160156 23.675781 C 22.304688 25.507812 19.75 26.660156 16.929688 26.660156 C 14.125 26.660156 11.570312 25.507812 9.71875 23.675781 C 9.324219 23.261719 8.933594 22.808594 8.605469 22.335938 L 4.011719 24.910156 C 3.515625 25.199219 2.875 25.011719 2.609375 24.519531 L 2.589844 24.519531 C 1.90625 23.261719 1.371094 21.945312 1.023438 20.582031 C 0.671875 19.246094 0.488281 17.863281 0.488281 16.441406 C 0.488281 14.710938 0.753906 13.042969 1.25 11.476562 C 1.703125 10.054688 2.339844 8.734375 3.125 7.519531 C 2.710938 6.921875 2.527344 6.242188 2.527344 5.542969 C 2.527344 4.65625 2.855469 3.75 3.554688 3.070312 C 4.238281 2.371094 5.144531 2.039062 6.027344 2.039062 C 6.9375 2.039062 7.84375 2.371094 8.523438 3.070312 C 9.203125 3.75 9.550781 4.65625 9.550781 5.542969 C 9.550781 6.449219 9.203125 7.355469 8.523438 8.035156 C 7.84375 8.714844 6.9375 9.066406 6.027344 9.066406 C 5.597656 9.066406 5.164062 8.984375 4.75 8.820312 C 4.113281 9.828125 3.597656 10.941406 3.226562 12.09375 C 2.792969 13.476562 2.546875 14.9375 2.546875 16.441406 C 2.546875 17.699219 2.710938 18.914062 3.019531 20.070312 C 3.246094 20.933594 3.554688 21.777344 3.925781 22.582031 L 7.59375 20.542969 C 7.039062 19.285156 6.730469 17.90625 6.730469 16.441406 C 6.730469 13.640625 7.882812 11.085938 9.71875 9.230469 C 11.34375 7.625 13.507812 6.550781 15.898438 6.304688 L 15.898438 1.03125 C 15.898438 0.453125 16.371094 0 16.929688 0 C 20.183594 0 23.234375 0.949219 25.789062 2.597656 C 28.242188 4.160156 30.257812 6.347656 31.578125 8.960938 C 32.300781 8.902344 33 9.066406 33.578125 9.417969 L 33.597656 9.417969 C 34.359375 9.871094 34.976562 10.609375 35.226562 11.558594 C 35.472656 12.484375 35.328125 13.433594 34.875 14.21875 C 34.421875 15 33.679688 15.617188 32.730469 15.863281 C 31.804688 16.113281 30.855469 15.949219 30.074219 15.515625 L 30.074219 15.496094 L 30.074219 15.515625 C 29.292969 15.0625 28.695312 14.300781 28.425781 13.371094 C 28.179688 12.445312 28.34375 11.496094 28.796875 10.714844 L 28.796875 10.695312 C 29.003906 10.324219 29.292969 9.972656 29.640625 9.703125 C 28.488281 7.519531 26.757812 5.667969 24.675781 4.328125 C 22.71875 3.070312 20.429688 2.285156 17.980469 2.101562 L 17.980469 6.304688 C 20.371094 6.550781 22.53125 7.625 24.160156 9.230469 C 25.996094 11.085938 27.148438 13.640625 27.148438 16.441406 C 27.148438 17.96875 26.820312 19.386719 26.222656 20.664062 Z M 22.699219 10.695312 C 21.214844 9.230469 19.175781 8.324219 16.929688 8.324219 C 14.703125 8.324219 12.664062 9.230469 11.179688 10.695312 C 9.71875 12.175781 8.8125 14.21875 8.8125 16.441406 C 8.8125 18.6875 9.71875 20.726562 11.179688 22.210938 C 12.664062 23.675781 14.703125 24.582031 16.929688 24.582031 C 19.175781 24.582031 21.214844 23.675781 22.699219 22.210938 C 24.160156 20.726562 25.066406 18.6875 25.066406 16.441406 C 25.066406 14.21875 24.160156 12.175781 22.699219 10.695312 Z M 16.929688 12.28125 C 18.082031 12.28125 19.132812 12.753906 19.875 13.515625 C 20.636719 14.257812 21.109375 15.308594 21.109375 16.441406 C 21.109375 17.597656 20.636719 18.648438 19.875 19.386719 C 19.132812 20.152344 18.082031 20.625 16.929688 20.625 C 15.796875 20.625 14.746094 20.152344 14.003906 19.386719 C 13.242188 18.648438 12.765625 17.597656 12.765625 16.441406 C 12.765625 15.308594 13.242188 14.257812 14.003906 13.515625 C 14.746094 12.753906 15.796875 12.28125 16.929688 12.28125 Z M 18.410156 14.980469 C 18.042969 14.585938 17.527344 14.359375 16.929688 14.359375 C 16.351562 14.359375 15.835938 14.585938 15.464844 14.980469 C 15.074219 15.351562 14.847656 15.863281 14.847656 16.441406 C 14.847656 17.039062 15.074219 17.554688 15.464844 17.925781 C 15.835938 18.316406 16.351562 18.542969 16.929688 18.542969 C 17.527344 18.542969 18.042969 18.316406 18.410156 17.925781 C 18.804688 17.554688 19.03125 17.039062 19.03125 16.441406 C 19.03125 15.863281 18.804688 15.351562 18.410156 14.980469 Z M 6.027344 4.101562 C 5.65625 4.101562 5.289062 4.246094 5.019531 4.53125 C 4.730469 4.800781 4.585938 5.171875 4.585938 5.542969 C 4.585938 5.914062 4.730469 6.285156 5.019531 6.574219 C 5.289062 6.859375 5.65625 7.003906 6.027344 7.003906 C 6.398438 7.003906 6.769531 6.859375 7.058594 6.574219 C 7.347656 6.285156 7.492188 5.914062 7.492188 5.542969 C 7.492188 5.171875 7.347656 4.800781 7.058594 4.53125 C 6.769531 4.246094 6.398438 4.101562 6.027344 4.101562 Z M 11.695312 32.058594 C 11.878906 32.390625 12.191406 32.636719 12.582031 32.738281 C 12.953125 32.84375 13.34375 32.78125 13.671875 32.597656 C 14.003906 32.410156 14.25 32.101562 14.351562 31.730469 C 14.457031 31.339844 14.394531 30.949219 14.207031 30.617188 C 14.023438 30.308594 13.714844 30.039062 13.324219 29.9375 C 12.929688 29.835938 12.539062 29.898438 12.230469 30.082031 C 11.902344 30.265625 11.652344 30.578125 11.550781 30.96875 C 11.449219 31.359375 11.507812 31.75 11.695312 32.058594 Z M 33.082031 13.1875 C 33.269531 12.855469 33.328125 12.464844 33.226562 12.09375 C 33.125 11.703125 32.875 11.394531 32.546875 11.207031 C 32.238281 11.023438 31.847656 10.960938 31.453125 11.0625 C 31.0625 11.167969 30.753906 11.414062 30.570312 11.746094 C 30.382812 12.054688 30.320312 12.445312 30.425781 12.835938 C 30.527344 13.226562 30.796875 13.535156 31.105469 13.722656 C 31.433594 13.90625 31.824219 13.96875 32.21875 13.867188 C 32.585938 13.761719 32.898438 13.515625 33.082031 13.1875 Z M 33.082031 13.1875 " clip-rule="nonzero"/></clipPath><linearGradient x1="5.467643" gradientTransform="matrix(2.060413, 0, 0, 2.060413, 0.486486, 0.00000194595)" y1="18.393143" x2="10.644645" gradientUnits="userSpaceOnUse" y2="-1.637404" id="5cb714302e"><stop stop-opacity="1" stop-color="rgb(22.045898%, 26.292419%, 31.253052%)" offset="0"/><stop stop-opacity="1" stop-color="rgb(22.697449%, 26.908875%, 31.828308%)" offset="0.00390625"/><stop stop-opacity="1" stop-color="rgb(23.350525%, 27.526855%, 32.40509%)" offset="0.0078125"/><stop stop-opacity="1" stop-color="rgb(24.003601%, 28.143311%, 32.980347%)" offset="0.0117187"/><stop stop-opacity="1" stop-color="rgb(24.656677%, 28.761292%, 33.555603%)" offset="0.015625"/><stop stop-opacity="1" stop-color="rgb(25.309753%, 29.377747%, 34.130859%)" offset="0.0195312"/><stop stop-opacity="1" stop-color="rgb(25.96283%, 29.995728%, 34.707642%)" offset="0.0234375"/><stop stop-opacity="1" stop-color="rgb(26.61438%, 30.612183%, 35.282898%)" offset="0.0273437"/><stop stop-opacity="1" stop-color="rgb(27.267456%, 31.230164%, 35.858154%)" offset="0.03125"/><stop stop-opacity="1" stop-color="rgb(27.920532%, 31.846619%, 36.433411%)" offset="0.0351562"/><stop stop-opacity="1" stop-color="rgb(28.573608%, 32.4646%, 37.010193%)" offset="0.0390625"/><stop stop-opacity="1" stop-color="rgb(29.225159%, 33.081055%, 37.585449%)" offset="0.0429687"/><stop stop-opacity="1" stop-color="rgb(29.878235%, 33.699036%, 38.160706%)" offset="0.046875"/><stop stop-opacity="1" stop-color="rgb(30.531311%, 34.315491%, 38.735962%)" offset="0.0507812"/><stop stop-opacity="1" stop-color="rgb(31.184387%, 34.933472%, 39.312744%)" offset="0.0546875"/><stop stop-opacity="1" stop-color="rgb(31.837463%, 35.549927%, 39.888%)" offset="0.0585937"/><stop stop-opacity="1" stop-color="rgb(32.49054%, 36.167908%, 40.463257%)" offset="0.0625"/><stop stop-opacity="1" stop-color="rgb(33.14209%, 36.784363%, 41.038513%)" offset="0.0664062"/><stop stop-opacity="1" stop-color="rgb(33.795166%, 37.402344%, 41.615295%)" offset="0.0703125"/><stop stop-opacity="1" stop-color="rgb(34.448242%, 38.018799%, 42.190552%)" offset="0.0742187"/><stop stop-opacity="1" stop-color="rgb(35.101318%, 38.63678%, 42.767334%)" offset="0.078125"/><stop stop-opacity="1" stop-color="rgb(35.752869%, 39.253235%, 43.34259%)" offset="0.0820312"/><stop stop-opacity="1" stop-color="rgb(36.405945%, 39.871216%, 43.917847%)" offset="0.0859375"/><stop stop-opacity="1" stop-color="rgb(37.059021%, 40.487671%, 44.493103%)" offset="0.0898437"/><stop stop-opacity="1" stop-color="rgb(37.712097%, 41.105652%, 45.069885%)" offset="0.09375"/><stop stop-opacity="1" stop-color="rgb(38.365173%, 41.722107%, 45.645142%)" offset="0.0976562"/><stop stop-opacity="1" stop-color="rgb(39.01825%, 42.340088%, 46.220398%)" offset="0.101562"/><stop stop-opacity="1" stop-color="rgb(39.6698%, 42.956543%, 46.795654%)" offset="0.105469"/><stop stop-opacity="1" stop-color="rgb(40.322876%, 43.574524%, 47.372437%)" offset="0.109375"/><stop stop-opacity="1" stop-color="rgb(40.975952%, 44.190979%, 47.947693%)" offset="0.113281"/><stop stop-opacity="1" stop-color="rgb(41.629028%, 44.80896%, 48.522949%)" offset="0.117187"/><stop stop-opacity="1" stop-color="rgb(42.280579%, 45.425415%, 49.098206%)" offset="0.121094"/><stop stop-opacity="1" stop-color="rgb(42.933655%, 46.043396%, 49.674988%)" offset="0.125"/><stop stop-opacity="1" stop-color="rgb(43.586731%, 46.659851%, 50.250244%)" offset="0.128906"/><stop stop-opacity="1" stop-color="rgb(44.239807%, 47.277832%, 50.8255%)" offset="0.132812"/><stop stop-opacity="1" stop-color="rgb(44.892883%, 47.894287%, 51.400757%)" offset="0.136719"/><stop stop-opacity="1" stop-color="rgb(45.545959%, 48.512268%, 51.977539%)" offset="0.140625"/><stop stop-opacity="1" stop-color="rgb(46.19751%, 49.128723%, 52.552795%)" offset="0.144531"/><stop stop-opacity="1" stop-color="rgb(46.850586%, 49.746704%, 53.128052%)" offset="0.148437"/><stop stop-opacity="1" stop-color="rgb(47.503662%, 50.363159%, 53.703308%)" offset="0.152344"/><stop stop-opacity="1" stop-color="rgb(48.156738%, 50.98114%, 54.28009%)" offset="0.15625"/><stop stop-opacity="1" stop-color="rgb(48.808289%, 51.597595%, 54.855347%)" offset="0.160156"/><stop stop-opacity="1" stop-color="rgb(49.461365%, 52.215576%, 55.430603%)" offset="0.164062"/><stop stop-opacity="1" stop-color="rgb(50.114441%, 52.832031%, 56.005859%)" offset="0.167969"/><stop stop-opacity="1" stop-color="rgb(50.767517%, 53.450012%, 56.582642%)" offset="0.171875"/><stop stop-opacity="1" stop-color="rgb(51.420593%, 54.066467%, 57.157898%)" offset="0.175781"/><stop stop-opacity="1" stop-color="rgb(52.073669%, 54.684448%, 57.733154%)" offset="0.179687"/><stop stop-opacity="1" stop-color="rgb(52.72522%, 55.300903%, 58.308411%)" offset="0.183594"/><stop stop-opacity="1" stop-color="rgb(53.378296%, 55.918884%, 58.885193%)" offset="0.1875"/><stop stop-opacity="1" stop-color="rgb(54.031372%, 56.535339%, 59.460449%)" offset="0.191406"/><stop stop-opacity="1" stop-color="rgb(54.684448%, 57.15332%, 60.037231%)" offset="0.195312"/><stop stop-opacity="1" stop-color="rgb(55.335999%, 57.769775%, 60.612488%)" offset="0.199219"/><stop stop-opacity="1" stop-color="rgb(55.989075%, 58.387756%, 61.187744%)" offset="0.203125"/><stop stop-opacity="1" stop-color="rgb(56.642151%, 59.004211%, 61.763%)" offset="0.207031"/><stop stop-opacity="1" stop-color="rgb(57.295227%, 59.622192%, 62.339783%)" offset="0.210937"/><stop stop-opacity="1" stop-color="rgb(57.946777%, 60.238647%, 62.915039%)" offset="0.214844"/><stop stop-opacity="1" stop-color="rgb(58.599854%, 60.856628%, 63.490295%)" offset="0.21875"/><stop stop-opacity="1" stop-color="rgb(59.25293%, 61.473083%, 64.065552%)" offset="0.222656"/><stop stop-opacity="1" stop-color="rgb(59.906006%, 62.091064%, 64.642334%)" offset="0.226562"/><stop stop-opacity="1" stop-color="rgb(60.559082%, 62.70752%, 65.21759%)" offset="0.230469"/><stop stop-opacity="1" stop-color="rgb(61.212158%, 63.3255%, 65.792847%)" offset="0.234375"/><stop stop-opacity="1" stop-color="rgb(61.863708%, 63.941956%, 66.368103%)" offset="0.238281"/><stop stop-opacity="1" stop-color="rgb(62.516785%, 64.559937%, 66.944885%)" offset="0.242187"/><stop stop-opacity="1" stop-color="rgb(63.169861%, 65.176392%, 67.520142%)" offset="0.246094"/><stop stop-opacity="1" stop-color="rgb(63.822937%, 65.794373%, 68.095398%)" offset="0.25"/><stop stop-opacity="1" stop-color="rgb(64.474487%, 66.410828%, 68.670654%)" offset="0.253906"/><stop stop-opacity="1" stop-color="rgb(65.127563%, 67.027283%, 69.247437%)" offset="0.257812"/><stop stop-opacity="1" stop-color="rgb(65.78064%, 67.643738%, 69.822693%)" offset="0.261719"/><stop stop-opacity="1" stop-color="rgb(66.433716%, 68.261719%, 70.397949%)" offset="0.265625"/><stop stop-opacity="1" stop-color="rgb(67.086792%, 68.878174%, 70.973206%)" offset="0.269531"/><stop stop-opacity="1" stop-color="rgb(67.739868%, 69.496155%, 71.549988%)" offset="0.273437"/><stop stop-opacity="1" stop-color="rgb(68.391418%, 70.11261%, 72.125244%)" offset="0.277344"/><stop stop-opacity="1" stop-color="rgb(69.044495%, 70.730591%, 72.7005%)" offset="0.28125"/><stop stop-opacity="1" stop-color="rgb(69.697571%, 71.347046%, 73.275757%)" offset="0.285156"/><stop stop-opacity="1" stop-color="rgb(70.350647%, 71.965027%, 73.852539%)" offset="0.289062"/><stop stop-opacity="1" stop-color="rgb(71.002197%, 72.581482%, 74.427795%)" offset="0.292969"/><stop stop-opacity="1" stop-color="rgb(71.655273%, 73.199463%, 75.003052%)" offset="0.296875"/><stop stop-opacity="1" stop-color="rgb(72.30835%, 73.815918%, 75.578308%)" offset="0.300781"/><stop stop-opacity="1" stop-color="rgb(72.961426%, 74.433899%, 76.15509%)" offset="0.304687"/><stop stop-opacity="1" stop-color="rgb(73.614502%, 75.050354%, 76.730347%)" offset="0.308594"/><stop stop-opacity="1" stop-color="rgb(74.267578%, 75.668335%, 77.307129%)" offset="0.3125"/><stop stop-opacity="1" stop-color="rgb(74.919128%, 76.28479%, 77.882385%)" offset="0.316406"/><stop stop-opacity="1" stop-color="rgb(75.572205%, 76.902771%, 78.457642%)" offset="0.320312"/><stop stop-opacity="1" stop-color="rgb(76.225281%, 77.519226%, 79.032898%)" offset="0.324219"/><stop stop-opacity="1" stop-color="rgb(76.878357%, 78.137207%, 79.60968%)" offset="0.328125"/><stop stop-opacity="1" stop-color="rgb(77.529907%, 78.753662%, 80.184937%)" offset="0.332031"/><stop stop-opacity="1" stop-color="rgb(78.182983%, 79.371643%, 80.760193%)" offset="0.335937"/><stop stop-opacity="1" stop-color="rgb(78.83606%, 79.988098%, 81.335449%)" offset="0.339844"/><stop stop-opacity="1" stop-color="rgb(79.489136%, 80.606079%, 81.912231%)" offset="0.34375"/><stop stop-opacity="1" stop-color="rgb(80.142212%, 81.222534%, 82.487488%)" offset="0.347656"/><stop stop-opacity="1" stop-color="rgb(80.795288%, 81.840515%, 83.062744%)" offset="0.351562"/><stop stop-opacity="1" stop-color="rgb(81.446838%, 82.45697%, 83.638%)" offset="0.355469"/><stop stop-opacity="1" stop-color="rgb(82.099915%, 83.074951%, 84.214783%)" offset="0.359375"/><stop stop-opacity="1" stop-color="rgb(82.752991%, 83.691406%, 84.790039%)" offset="0.363281"/><stop stop-opacity="1" stop-color="rgb(83.406067%, 84.309387%, 85.365295%)" offset="0.367187"/><stop stop-opacity="1" stop-color="rgb(84.057617%, 84.925842%, 85.940552%)" offset="0.371094"/><stop stop-opacity="1" stop-color="rgb(84.710693%, 85.543823%, 86.517334%)" offset="0.375"/><stop stop-opacity="1" stop-color="rgb(85.36377%, 86.160278%, 87.09259%)" offset="0.378906"/><stop stop-opacity="1" stop-color="rgb(86.016846%, 86.778259%, 87.667847%)" offset="0.382812"/><stop stop-opacity="1" stop-color="rgb(86.669922%, 87.394714%, 88.243103%)" offset="0.386719"/><stop stop-opacity="1" stop-color="rgb(87.322998%, 88.012695%, 88.819885%)" offset="0.390625"/><stop stop-opacity="1" stop-color="rgb(87.974548%, 88.62915%, 89.395142%)" offset="0.394531"/><stop stop-opacity="1" stop-color="rgb(88.627625%, 89.247131%, 89.970398%)" offset="0.398437"/><stop stop-opacity="1" stop-color="rgb(89.280701%, 89.863586%, 90.545654%)" offset="0.402344"/><stop stop-opacity="1" stop-color="rgb(89.933777%, 90.481567%, 91.122437%)" offset="0.40625"/><stop stop-opacity="1" stop-color="rgb(90.585327%, 91.098022%, 91.697693%)" offset="0.410156"/><stop stop-opacity="1" stop-color="rgb(91.238403%, 91.716003%, 92.272949%)" offset="0.414062"/><stop stop-opacity="1" stop-color="rgb(91.891479%, 92.332458%, 92.848206%)" offset="0.417969"/><stop stop-opacity="1" stop-color="rgb(92.544556%, 92.950439%, 93.424988%)" offset="0.421875"/><stop stop-opacity="1" stop-color="rgb(93.197632%, 93.566895%, 94.000244%)" offset="0.425781"/><stop stop-opacity="1" stop-color="rgb(93.850708%, 94.184875%, 94.577026%)" offset="0.429687"/><stop stop-opacity="1" stop-color="rgb(94.502258%, 94.801331%, 95.152283%)" offset="0.433594"/><stop stop-opacity="1" stop-color="rgb(95.155334%, 95.419312%, 95.727539%)" offset="0.4375"/><stop stop-opacity="1" stop-color="rgb(95.808411%, 96.035767%, 96.302795%)" offset="0.441406"/><stop stop-opacity="1" stop-color="rgb(96.461487%, 96.653748%, 96.879578%)" offset="0.445312"/><stop stop-opacity="1" stop-color="rgb(97.113037%, 97.270203%, 97.454834%)" offset="0.449219"/><stop stop-opacity="1" stop-color="rgb(97.766113%, 97.888184%, 98.03009%)" offset="0.453125"/><stop stop-opacity="1" stop-color="rgb(98.419189%, 98.504639%, 98.605347%)" offset="0.457031"/><stop stop-opacity="1" stop-color="rgb(99.072266%, 99.12262%, 99.182129%)" offset="0.460937"/><stop stop-opacity="1" stop-color="rgb(99.536133%, 99.560547%, 99.591064%)" offset="0.464844"/><stop stop-opacity="1" stop-color="rgb(100%, 100%, 100%)" offset="0.46875"/><stop stop-opacity="1" stop-color="rgb(100%, 100%, 100%)" offset="0.5"/><stop stop-opacity="1" stop-color="rgb(100%, 100%, 100%)" offset="0.794625"/><stop stop-opacity="1" stop-color="rgb(100%, 100%, 100%)" offset="1"/></linearGradient></defs><g clip-path="url(#071ae43700)"><g clip-path="url(#66238ee677)"><path fill="url(#5cb714302e)" d="M 0.488281 0 L 0.488281 34.984375 L 35.472656 34.984375 L 35.472656 0 Z M 0.488281 0 " fill-rule="nonzero"/></g></g></svg>